<?xml version="1.0" encoding="utf-8"?>
<!-- Generator: Adobe Illustrator 26.5.0, SVG Export Plug-In . SVG Version: 6.00 Build 0)  -->
<svg version="1.1" id="Lager_1" xmlns="http://www.w3.org/2000/svg" xmlns:xlink="http://www.w3.org/1999/xlink" x="0px" y="0px"
	 viewBox="0 0 50.79 50.79" style="enable-background:new 0 0 50.79 50.79;" xml:space="preserve">
<style type="text/css">
	.st0{fill:#1A1A1A;}
</style>
<path id="Blue_1_" class="st0" d="M2.8,0C1.25,0,0,1.25,0,2.8v45.19c0,1.55,1.25,2.8,2.8,2.8h24.33V31.13h-6.62v-7.67h6.62V17.8
	c0-6.56,4.01-10.13,9.86-10.13c2.8,0,5.21,0.21,5.91,0.3v6.85h-4.06c-3.18,0-3.8,1.51-3.8,3.73v4.9h7.59l-0.99,7.67h-6.6v19.66
	h12.95c1.55,0,2.8-1.25,2.8-2.8V2.8c0-1.55-1.25-2.8-2.8-2.8L2.8,0L2.8,0z"/>
</svg>
