<?xml version="1.0" encoding="utf-8"?>
<!-- Generator: Adobe Illustrator 26.5.0, SVG Export Plug-In . SVG Version: 6.00 Build 0)  -->
<svg version="1.1" id="Lager_1" xmlns="http://www.w3.org/2000/svg" xmlns:xlink="http://www.w3.org/1999/xlink" x="0px" y="0px"
	 viewBox="0 0 126.38 33.47" style="enable-background:new 0 0 126.38 33.47;" xml:space="preserve">
<style type="text/css">
	.st0{fill:#1A1A1A;}
</style>
<path id="path14" class="st0" d="M95.58,0c-1.36,0-2.46,1.07-2.46,2.39v28.68c0,1.32,1.1,2.39,2.46,2.39h28.34
	c1.36,0,2.46-1.07,2.46-2.39V2.39c0-1.32-1.1-2.39-2.46-2.39H95.58z M100.72,5.62c1.72,0,2.77,1.13,2.8,2.61
	c0,1.45-1.09,2.61-2.84,2.61h-0.03c-1.69,0-2.78-1.16-2.78-2.61C97.88,6.74,99,5.62,100.72,5.62z M18.43,5.64
	c-1.72,0-2.84,1.13-2.84,2.61c0,1.45,1.09,2.61,2.78,2.61h0.04c1.75,0,2.84-1.16,2.84-2.61C21.21,6.76,20.15,5.64,18.43,5.64
	L18.43,5.64z M0,6.09v21.94h13.88v-4.56H5.02V6.09H0z M40.64,6.09v21.94h5.02v-4.9l1.26-1.58l3.93,6.48h6.19l-6.62-9.38l5.79-6.38
	h-6.05c0,0-4.14,5.71-4.5,6.38V6.09L40.64,6.09L40.64,6.09z M83.03,6.09v7.59h-0.06c-0.73-1.06-2.24-1.77-4.26-1.77
	c-3.87,0-7.27,3.09-7.24,8.38c0,4.9,3.07,8.1,6.9,8.1c2.08,0,4.07-0.9,5.06-2.65h0.1l0.2,2.29h4.46c-0.07-1.06-0.14-2.9-0.14-4.71
	V6.09L83.03,6.09L83.03,6.09z M63.43,11.88c-5.59,0-8.16,4.42-8.16,8.42c0,4.96,3.14,8.06,8.63,8.06c2.18,0,4.2-0.33,5.85-1.01
	l-0.66-3.32c-1.35,0.45-2.74,0.68-4.46,0.68c-2.35,0-4.4-0.97-4.57-3.02l10.42,0.03c0.07-0.39,0.16-1.13,0.16-1.98
	C70.63,15.84,68.65,11.88,63.43,11.88L63.43,11.88z M115.53,12.55c3.31,0,5.78,2.16,5.78,6.8v8.66h-5.02v-8.09
	c0-2.03-0.73-3.42-2.54-3.42c-1.39,0-2.22,0.94-2.58,1.84c-0.13,0.32-0.16,0.77-0.16,1.22v8.44h-5.03c0,0,0.07-13.69,0-15.11H111
	v2.13C111.67,14.01,112.87,12.55,115.53,12.55L115.53,12.55z M111,15.04c-0.01,0.02-0.03,0.04-0.04,0.06H111V15.04z M32.8,12.57
	c-2.66,0-3.86,1.46-4.53,2.49v0.06h-0.04c0.01-0.02,0.03-0.04,0.04-0.06v-2.13h-5.02c0.07,1.42,0,15.11,0,15.11h5.02v-8.44
	c0-0.45,0.04-0.91,0.17-1.23c0.36-0.9,1.18-1.84,2.57-1.84c1.82,0,2.55,1.39,2.55,3.42v8.09h5.02v-8.66
	C38.58,14.73,36.1,12.57,32.8,12.57z M98.17,12.9h5.02v15.11h-5.02V12.9z M15.89,12.92v15.11h5.02V12.92H15.89z M63.17,15.14
	c2.28,0,2.8,2.04,2.8,3.2h-5.94C60.16,17.05,61.02,15.14,63.17,15.14L63.17,15.14z M80.03,15.69c1.55,0,2.64,1.06,2.93,2.39
	c0.07,0.29,0.06,0.61,0.06,0.9v2.06c0,0.39-0.03,0.78-0.09,1.1c-0.3,1.39-1.49,2.35-2.94,2.35c-2.08,0-3.44-1.67-3.44-4.31
	C76.56,17.69,77.72,15.69,80.03,15.69L80.03,15.69z"/>
</svg>
