<?xml version="1.0" encoding="utf-8"?>
<!-- Generator: Adobe Illustrator 26.5.0, SVG Export Plug-In . SVG Version: 6.00 Build 0)  -->
<svg version="1.1" id="Lager_1" xmlns="http://www.w3.org/2000/svg" xmlns:xlink="http://www.w3.org/1999/xlink" x="0px" y="0px"
	 viewBox="0 0 47.18 47.17" style="enable-background:new 0 0 47.18 47.17;" xml:space="preserve">
<style type="text/css">
	.st0{fill:#1A1A1A;}
</style>
<path id="path4173" class="st0" d="M23.59,0C10.56,0,0,10.56,0,23.59c0,9.68,5.84,17.99,14.19,21.63c-0.13-1.81-0.15-3.96,0.23-5.61
	c0.45-1.95,2.93-12.43,2.93-12.43s-0.76-1.5-0.76-3.72c0-3.48,2.03-6.07,4.53-6.07c2.13,0,3.16,1.6,3.16,3.52
	c0,2.14-1.36,5.36-2.07,8.33c-0.59,2.49,1.25,4.52,3.71,4.52c4.45,0,7.86-4.69,7.86-11.46c0-5.99-4.3-10.17-10.45-10.17
	c-7.11,0-11.29,5.33-11.29,10.85c0,2.15,0.82,4.46,1.85,5.71c0.21,0.25,0.25,0.47,0.18,0.72c-0.19,0.79-0.61,2.49-0.69,2.84
	c-0.11,0.46-0.37,0.55-0.84,0.33c-3.12-1.45-5.07-6.01-5.07-9.68c0-7.9,5.72-15.14,16.52-15.14c8.68,0,15.42,6.18,15.42,14.45
	c0,8.62-5.44,15.56-12.98,15.56c-2.53,0-4.91-1.32-5.73-2.88c0,0-1.25,4.78-1.55,5.95c-0.44,1.7-1.47,3.72-2.39,5.33
	c2.16,0.65,4.45,1.01,6.83,1.01c13.03,0,23.59-10.55,23.59-23.58C47.18,10.56,36.61,0,23.59,0L23.59,0z"/>
</svg>
