<?xml version="1.0" encoding="utf-8"?>
<!-- Generator: Adobe Illustrator 26.5.0, SVG Export Plug-In . SVG Version: 6.00 Build 0)  -->
<svg version="1.1" id="Lager_1" xmlns="http://www.w3.org/2000/svg" xmlns:xlink="http://www.w3.org/1999/xlink" x="0px" y="0px"
	 viewBox="0 0 37.83 48.84" style="enable-background:new 0 0 37.83 48.84;" xml:space="preserve">
<style type="text/css">
	.st0{fill:#1A1A1A;}
</style>
<path id="path4115" class="st0" d="M19.57,0C6.79,0,0,8.58,0,17.93c0,4.34,2.31,9.75,6.01,11.47C6.57,29.66,6.87,29.54,7,29
	c0.1-0.41,0.6-2.42,0.82-3.36c0.07-0.3,0.04-0.56-0.21-0.85c-1.22-1.48-2.2-4.21-2.2-6.76c0-6.53,4.95-12.85,13.37-12.85
	c7.28,0,12.37,4.96,12.37,12.05c0,8.01-4.04,13.56-9.31,13.56c-2.91,0-5.09-2.4-4.39-5.35c0.84-3.52,2.45-7.32,2.45-9.86
	c0-2.28-1.22-4.17-3.75-4.17c-2.97,0-5.36,3.08-5.36,7.2c0,2.62,0.89,4.39,0.89,4.39S8.76,35.41,8.23,37.72
	C7.31,41.64,8.35,48,8.44,48.55c0.05,0.3,0.38,0.4,0.56,0.15c0.29-0.38,3.83-5.69,4.83-9.53c0.36-1.38,1.84-7.04,1.84-7.04
	c0.97,1.84,3.79,3.4,6.79,3.4c8.93,0,15.37-8.22,15.37-18.42C37.83,7.32,29.84,0,19.57,0"/>
</svg>
