<?xml version="1.0" encoding="utf-8"?>
<!-- Generator: Adobe Illustrator 26.5.0, SVG Export Plug-In . SVG Version: 6.00 Build 0)  -->
<svg version="1.1"
	 id="svg3003" xmlns:sodipodi="http://sodipodi.sourceforge.net/DTD/sodipodi-0.dtd" xmlns:inkscape="http://www.inkscape.org/namespaces/inkscape" xmlns:rdf="http://www.w3.org/1999/02/22-rdf-syntax-ns#" xmlns:cc="http://creativecommons.org/ns#" xmlns:dc="http://purl.org/dc/elements/1.1/" xmlns:svg="http://www.w3.org/2000/svg"
	 xmlns="http://www.w3.org/2000/svg" xmlns:xlink="http://www.w3.org/1999/xlink" x="0px" y="0px" viewBox="0 0 717.03 241.21"
	 style="enable-background:new 0 0 717.03 241.21;" xml:space="preserve">
<style type="text/css">
	.st0{fill:#1A1A1A;}
	.st1{fill-rule:evenodd;clip-rule:evenodd;fill:#1A1A1A;}
</style>
<path id="path22-2" inkscape:connector-curvature="0" class="st0" d="M557.31,101c-8.88,0-13.59,5.97-13.59,12.47
	c0,3.02,1.59,6.77,4.16,7.97c0.39,0.18,0.6,0.09,0.69-0.28c0.07-0.29,0.41-1.69,0.56-2.34c0.05-0.21,0.04-0.39-0.12-0.59
	c-0.85-1.03-1.53-2.92-1.53-4.69c0-4.54,3.43-8.94,9.28-8.94c5.06,0,8.59,3.45,8.59,8.38c0,5.57-2.81,9.44-6.47,9.44
	c-2.02,0-3.52-1.67-3.03-3.72c0.58-2.44,1.69-5.11,1.69-6.88c0-1.58-0.84-2.88-2.59-2.88c-2.06,0-3.72,2.14-3.72,5
	c0,1.82,0.62,3.03,0.62,3.03s-2.07,8.64-2.44,10.25c-0.64,2.72,0.09,7.11,0.16,7.5c0.03,0.21,0.28,0.3,0.41,0.12
	c0.2-0.27,2.65-3.96,3.34-6.62c0.25-0.96,1.28-4.91,1.28-4.91c0.67,1.28,2.63,2.38,4.72,2.38c6.21,0,10.69-5.72,10.69-12.81
	C570,106.08,564.45,101,557.31,101z M667.19,101.06c-5.29,0-8.75,3.56-8.75,8.56c0,1.46,0.54,3.13,1.22,4.19
	c-0.28-0.02-0.58-0.03-0.88-0.03c-4.02,0-6.53,2.2-6.53,5.38c0,2.98,2.35,4.13,4.56,4.91c1.96,0.68,3.75,1,3.75,2.53
	c0,1.03-0.99,1.66-2.94,1.66c-2.31,0-3.59-1.09-3.91-1.5c0.22-0.17,0.56-0.6,0.56-1.28c0-0.95-0.69-1.72-1.94-1.72
	c-1.06,0-1.93,0.84-2.16,1.97c-1.69,1.38-3.54,2.28-6.16,2.28c-2.58,0-3.94-1.33-3.94-4.19c0.61,0.18,2.21,0.41,3.25,0.41
	c4.37,0,7.34-1.99,7.34-5.97c0-2.14-1.88-4.38-5.59-4.38h-0.03c-4.88,0-7.58,3.1-8.78,6.5c-0.33-0.08-0.69-0.17-1.03-0.25
	c0.27-0.75,0.47-1.63,0.47-2.59c0-1.68-1.03-3.66-3.81-3.66c-1.94,0-3.79,1.28-5.06,3.19c0.32-1.24,0.51-2.07,0.53-2.12
	c0.08-0.33-0.06-0.69-0.56-0.69h-2.84c-0.4,0-0.69,0.13-0.81,0.59c-0.08,0.31-1.04,4.16-2,7.91c-0.6,2.34-3.74,5.25-7.66,5.25
	c-2.58,0-3.91-1.43-3.91-4.28c0.67,0.27,2.18,0.5,3.22,0.5c4.55,0,7.34-1.99,7.34-5.97c0-2.14-1.88-4.38-5.59-4.38
	c-5.49,0-8.86,4.28-9.44,9.12c-0.24,2.01-1.94,4.78-3.78,4.78c-0.9,0-1.38-0.57-1.38-1.53c0-0.83,0.58-2.84,1.22-5.38
	c0.21-0.84,0.52-2.13,0.88-3.56h3c0.44,0,0.71-0.18,0.81-0.59c0.14-0.6,0.39-1.65,0.47-1.94c0.1-0.37-0.12-0.66-0.53-0.66h-2.94
	c0,0,1.34-5.42,1.38-5.56c0.13-0.55-0.33-0.85-0.81-0.75c0,0-2.26,0.44-2.69,0.53c-0.42,0.08-0.75,0.33-0.91,0.94
	c-0.02,0.08-1.19,4.84-1.19,4.84h-2.38c-0.45,0-0.71,0.18-0.81,0.59c-0.15,0.6-0.4,1.65-0.47,1.94c-0.1,0.37,0.12,0.66,0.53,0.66
	h2.31c-0.02,0.07-0.84,3.18-1.5,5.97c-0.31,1.34-1.35,4.47-3.06,4.47c-1.02,0-1.44-0.52-1.44-1.62c0-1.74,1.69-6.09,1.69-8.06
	c0-2.64-1.41-4.19-4.31-4.19c-1.83,0-3.73,1.18-4.53,2.22c0,0,0.26-0.83,0.34-1.16c0.09-0.35-0.11-0.69-0.56-0.69h-2.84
	c-0.61,0-0.76,0.33-0.84,0.69c-0.04,0.14-1.08,4.14-2.06,8c-0.67,2.64-2.29,4.84-4.03,4.84c-0.9,0-1.31-0.54-1.31-1.5
	c0-0.83,0.55-2.87,1.19-5.41c0.77-3.08,1.46-5.61,1.53-5.91c0.09-0.38-0.08-0.72-0.56-0.72h-2.88c-0.52,0-0.71,0.28-0.81,0.66
	c0,0-0.8,3.02-1.66,6.41c-0.62,2.46-1.28,4.98-1.28,6.16c0,2.1,0.94,3.69,3.53,3.69c2,0,3.57-1.02,4.78-2.31
	c-0.18,0.7-0.3,1.14-0.31,1.19c-0.1,0.4,0.03,0.75,0.5,0.75h2.94c0.51,0,0.71-0.21,0.81-0.66c0.1-0.42,2.28-9,2.28-9
	c0.58-2.31,1.99-3.84,4-3.84c0.95,0,1.79,0.65,1.69,1.88c-0.11,1.35-1.72,6.19-1.72,8.31c0,1.61,0.6,3.69,3.62,3.69
	c2.07,0,3.59-1.01,4.69-2.28c0.4,1.36,1.47,2.28,3.44,2.28c3.27,0,5.22-1.96,6.38-3.91c0.96,2.26,3.23,3.91,6.53,3.91
	c3.36,0,5.94-1.42,7.78-3.34c-0.33,1.3-0.54,2.18-0.56,2.25c-0.11,0.4,0.08,0.72,0.56,0.72h2.88c0.39,0,0.68-0.21,0.78-0.62
	c0.05-0.2,0.47-1.8,1.06-4.09c1.13-4.39,2.93-8.97,5.66-8.97c0.96,0,1.38,0.56,1.38,1.41c0,0.4-0.12,0.72-0.22,0.91
	c-1.32-0.26-2.38,0.4-2.38,1.81c0,0.92,0.95,1.75,2.25,1.75c1,0,1.84-0.24,2.5-0.69c0.61,0.13,1.27,0.29,1.94,0.44
	c-0.1,0.66-0.16,1.29-0.16,1.91c0,3.53,2.65,6.53,7.16,6.53c3.54,0,5.81-1.2,7.94-2.97c1.01,1.65,3.54,3,6.88,3
	c4.57,0,7.16-2.39,7.16-5.53c0-2.84-2.31-3.88-4.72-4.75c-1.96-0.71-3.59-1.12-3.59-2.5c0-1.14,0.88-1.62,2.41-1.62
	c0.99,0,1.75,0.2,2.16,0.31c0.39,0.99,1.2,2.09,2.59,2.09c1.18,0,1.72-0.95,1.72-1.81c0-2.45-4.09-2.69-4.09-7.94
	c0-3.26,1.86-5.97,5.69-5.97c2.66,0,4.38,1.69,4.38,4.41c0,2.24-1.34,6.25-1.34,6.25h-2.31c-0.44,0-0.71,0.18-0.81,0.59
	c-0.15,0.6-0.42,1.65-0.5,1.94c-0.09,0.37,0.14,0.66,0.56,0.66h2.25c0,0-2.34,8.59-2.34,10.16c0,2.1,1.19,3.69,3.78,3.69
	c3.67,0,5.97-2.38,6.97-5.84c0.07-0.27-0.07-0.5-0.34-0.5h-1.41c-0.28,0-0.43,0.17-0.5,0.44c-0.32,1.23-1.11,2.53-2.66,2.53
	c-0.9,0-1.41-0.57-1.41-1.53c0-0.83,0.55-2.76,1.22-5.38c0.32-1.25,0.91-3.56,0.91-3.56h3.25c0.45,0,0.72-0.18,0.81-0.59
	c0.15-0.6,0.39-1.65,0.47-1.94c0.1-0.37-0.12-0.66-0.53-0.66h-3.22c0.23-0.92,1.16-3.93,1.16-5.88
	C675.19,104.36,671.88,101.06,667.19,101.06L667.19,101.06z M575.19,107c-1.45,0-2.71,1.24-2.81,2.75c-0.1,1.51,1.01,2.72,2.47,2.72
	c1.46,0,2.71-1.21,2.81-2.72C577.76,108.24,576.65,107,575.19,107L575.19,107z M613.81,117.16c1.42,0,1.91,0.85,1.91,1.88
	c0,1.74-1.33,2.81-3.44,2.81c-0.76,0-1.81-0.17-2.44-0.38C610.11,119.87,611.12,117.16,613.81,117.16z M644.31,117.16
	c1.3,0,1.94,0.85,1.94,1.88c0,1.74-1.36,2.81-3.47,2.81c-0.76,0-1.82-0.17-2.44-0.38C640.6,119.87,641.75,117.16,644.31,117.16z"/>
<path id="path3884" inkscape:connector-curvature="0" class="st0" d="M359.04,119.99c-10.95,0-19.82,8.87-19.82,19.82
	c0,14.74,15.85,30.93,19.82,30.93s19.82-16.2,19.82-30.93C378.86,128.86,369.99,119.99,359.04,119.99L359.04,119.99z M359.04,127.85
	c6.64,0,12.03,5.38,12.03,12.03c0,6.64-5.38,12.03-12.03,12.03s-12.03-5.38-12.03-12.03c0-2.63,0.85-5.06,2.29-7.04
	c0.15,2.54,2.26,4.56,4.84,4.56c2.68,0,4.86-2.18,4.86-4.86c0-1.92-1.11-3.56-2.73-4.35C357.17,127.97,358.09,127.85,359.04,127.85
	L359.04,127.85z"/>
<path id="path14" inkscape:connector-curvature="0" class="st0" d="M647.01,149.28c-1.36,0-2.46,1.07-2.46,2.39v28.68
	c0,1.32,1.1,2.39,2.46,2.39h28.34c1.36,0,2.46-1.07,2.46-2.39v-28.68c0-1.32-1.1-2.39-2.46-2.39H647.01z M652.15,154.89
	c1.72,0,2.77,1.13,2.8,2.61c0,1.45-1.09,2.61-2.84,2.61h-0.03c-1.69,0-2.78-1.16-2.78-2.61
	C649.31,156.02,650.43,154.89,652.15,154.89z M569.86,154.91c-1.72,0-2.84,1.13-2.84,2.61c0,1.45,1.09,2.61,2.78,2.61h0.04
	c1.75,0,2.84-1.16,2.84-2.61C572.64,156.04,571.58,154.91,569.86,154.91L569.86,154.91z M551.43,155.37v21.94h13.88v-4.56h-8.86
	v-17.39H551.43z M592.08,155.37v21.94h5.02v-4.9l1.26-1.58l3.93,6.48h6.19l-6.62-9.38l5.79-6.38h-6.05c0,0-4.14,5.71-4.5,6.38
	v-12.56L592.08,155.37L592.08,155.37z M634.47,155.37v7.59h-0.06c-0.73-1.06-2.24-1.77-4.26-1.77c-3.87,0-7.27,3.09-7.24,8.38
	c0,4.9,3.07,8.1,6.9,8.1c2.08,0,4.07-0.9,5.06-2.65h0.1l0.2,2.29h4.46c-0.07-1.06-0.14-2.9-0.14-4.71v-17.24L634.47,155.37
	L634.47,155.37z M614.86,161.16c-5.59,0-8.16,4.42-8.16,8.42c0,4.96,3.14,8.06,8.63,8.06c2.18,0,4.2-0.33,5.85-1.01l-0.66-3.32
	c-1.35,0.45-2.74,0.68-4.46,0.68c-2.35,0-4.4-0.97-4.57-3.02l10.42,0.03c0.07-0.39,0.16-1.13,0.16-1.98
	C622.07,165.12,620.09,161.16,614.86,161.16L614.86,161.16z M666.97,161.83c3.31,0,5.78,2.16,5.78,6.8v8.66h-5.02v-8.09
	c0-2.03-0.73-3.42-2.54-3.42c-1.39,0-2.22,0.94-2.58,1.84c-0.13,0.32-0.16,0.77-0.16,1.22v8.44h-5.03c0,0,0.07-13.69,0-15.11h5.03
	v2.13C663.11,163.28,664.3,161.83,666.97,161.83L666.97,161.83z M662.44,164.31c-0.01,0.02-0.03,0.04-0.04,0.06h0.04V164.31z
	 M584.23,161.84c-2.66,0-3.86,1.46-4.53,2.49v0.06h-0.04c0.01-0.02,0.03-0.04,0.04-0.06v-2.13h-5.02c0.07,1.42,0,15.11,0,15.11h5.02
	v-8.44c0-0.45,0.04-0.91,0.17-1.23c0.36-0.9,1.18-1.84,2.57-1.84c1.82,0,2.55,1.39,2.55,3.42v8.09h5.02v-8.66
	C590.02,164,587.54,161.84,584.23,161.84z M649.61,162.18h5.02v15.11h-5.02V162.18z M567.32,162.2v15.11h5.02V162.2H567.32z
	 M614.6,164.42c2.28,0,2.8,2.04,2.8,3.2h-5.94C611.6,166.32,612.46,164.42,614.6,164.42L614.6,164.42z M631.47,164.97
	c1.55,0,2.64,1.06,2.93,2.39c0.07,0.29,0.06,0.61,0.06,0.9v2.06c0,0.39-0.03,0.78-0.09,1.1c-0.3,1.39-1.49,2.35-2.94,2.35
	c-2.08,0-3.44-1.67-3.44-4.31C627.99,166.96,629.15,164.97,631.47,164.97L631.47,164.97z"/>
<path id="path4026" inkscape:connector-curvature="0" class="st0" d="M443.92,147.53c-1.19,0.28-2.34,0.39-3.37,0.39
	c-5.82,0-10.31-4.07-10.31-11.14c0-3.47,1.34-5.27,3.24-5.27c1.8,0,3.01,1.62,3.01,4.9c0,1.87-0.5,3.91-0.87,5.12
	c0,0,1.8,3.13,6.7,2.17c1.04-2.31,1.61-5.31,1.61-7.94c0-7.07-3.61-11.19-10.21-11.19c-6.79,0-10.77,5.22-10.77,12.11
	c0,6.82,3.19,12.68,8.45,15.35c-2.21,4.42-5.02,8.32-7.96,11.26c-5.33-6.44-10.14-15.02-12.11-31.78h-7.86
	c3.63,27.91,14.45,36.79,17.31,38.5c1.62,0.97,3.01,0.92,4.49,0.09c2.32-1.32,9.3-8.29,13.16-16.46c1.62,0,3.57-0.19,5.51-0.63
	L443.92,147.53L443.92,147.53z"/>
<path id="path4115" inkscape:connector-curvature="0" class="st0" d="M149.22,121.9c-12.78,0-19.57,8.58-19.57,17.93
	c0,4.34,2.31,9.75,6.01,11.47c0.56,0.26,0.86,0.15,0.99-0.39c0.1-0.41,0.6-2.42,0.82-3.36c0.07-0.3,0.04-0.56-0.21-0.85
	c-1.22-1.48-2.2-4.21-2.2-6.76c0-6.53,4.95-12.85,13.37-12.85c7.28,0,12.37,4.96,12.37,12.05c0,8.01-4.04,13.56-9.31,13.56
	c-2.91,0-5.09-2.4-4.39-5.35c0.84-3.52,2.45-7.32,2.45-9.86c0-2.28-1.22-4.17-3.75-4.17c-2.97,0-5.36,3.08-5.36,7.2
	c0,2.62,0.89,4.39,0.89,4.39s-2.93,12.41-3.47,14.72c-0.91,3.92,0.12,10.27,0.21,10.83c0.05,0.3,0.38,0.4,0.56,0.15
	c0.29-0.38,3.83-5.69,4.83-9.53c0.36-1.38,1.84-7.04,1.84-7.04c0.97,1.84,3.79,3.4,6.79,3.4c8.93,0,15.37-8.22,15.37-18.42
	C167.48,129.22,159.49,121.9,149.22,121.9"/>
<path id="path4173" inkscape:connector-curvature="0" class="st0" d="M215.66,123.58c-13.03,0-23.59,10.56-23.59,23.59
	c0,9.68,5.84,17.99,14.19,21.63c-0.13-1.81-0.15-3.96,0.23-5.61c0.45-1.95,2.93-12.43,2.93-12.43s-0.76-1.5-0.76-3.72
	c0-3.48,2.03-6.07,4.53-6.07c2.13,0,3.16,1.6,3.16,3.52c0,2.14-1.36,5.36-2.07,8.33c-0.59,2.49,1.25,4.52,3.71,4.52
	c4.45,0,7.86-4.69,7.86-11.46c0-5.99-4.3-10.17-10.45-10.17c-7.11,0-11.29,5.33-11.29,10.85c0,2.15,0.82,4.46,1.85,5.71
	c0.21,0.25,0.25,0.47,0.18,0.72c-0.19,0.79-0.61,2.49-0.69,2.84c-0.11,0.46-0.37,0.55-0.84,0.33c-3.12-1.45-5.07-6.01-5.07-9.68
	c0-7.9,5.72-15.14,16.52-15.14c8.68,0,15.42,6.18,15.42,14.45c0,8.62-5.44,15.56-12.98,15.56c-2.53,0-4.91-1.32-5.73-2.88
	c0,0-1.25,4.78-1.55,5.95c-0.44,1.7-1.47,3.72-2.39,5.33c2.16,0.65,4.45,1.01,6.83,1.01c13.03,0,23.59-10.55,23.59-23.58
	C239.25,134.14,228.69,123.58,215.66,123.58L215.66,123.58z"/>
<path id="Blue_1_" inkscape:connector-curvature="0" class="st0" d="M32.59,23.86c-1.55,0-2.8,1.25-2.8,2.8v45.19
	c0,1.55,1.25,2.8,2.8,2.8h24.33V54.99h-6.62v-7.67h6.62v-5.65c0-6.56,4.01-10.13,9.86-10.13c2.8,0,5.21,0.21,5.91,0.3v6.85h-4.06
	c-3.18,0-3.8,1.51-3.8,3.73v4.9h7.59l-0.99,7.67h-6.6v19.66h12.95c1.55,0,2.8-1.25,2.8-2.8V26.67c0-1.55-1.25-2.8-2.8-2.8
	L32.59,23.86L32.59,23.86z"/>
<path id="path22" inkscape:connector-curvature="0" class="st0" d="M229.58,38.27c-1.87,0.83-3.88,1.39-5.98,1.64
	c2.15-1.29,3.8-3.33,4.58-5.76c-2.01,1.19-4.24,2.06-6.62,2.53c-1.9-2.02-4.61-3.29-7.6-3.29c-5.76,0-10.42,4.66-10.42,10.42
	c0,0.82,0.09,1.61,0.27,2.37c-8.66-0.43-16.34-4.58-21.48-10.89c-0.9,1.54-1.41,3.33-1.41,5.24c0,3.62,1.84,6.8,4.64,8.67
	c-1.71-0.05-3.31-0.52-4.72-1.3c0,0.04,0,0.09,0,0.13c0,5.05,3.59,9.26,8.36,10.22c-0.87,0.24-1.79,0.36-2.74,0.36
	c-0.67,0-1.32-0.06-1.96-0.19c1.33,4.14,5.17,7.15,9.73,7.24c-3.57,2.8-8.06,4.46-12.94,4.46c-0.84,0-1.67-0.05-2.49-0.15
	c4.61,2.96,10.09,4.68,15.97,4.68c19.17,0,29.64-15.88,29.64-29.65c0-0.45-0.01-0.9-0.03-1.35
	C226.41,42.19,228.18,40.36,229.58,38.27"/>
<path id="path5" inkscape:connector-curvature="0" class="st0" d="M377.92,74.65c-0.14,0-0.28-0.01-0.39-0.01
	c-0.08,0.01-0.17,0.01-0.25,0.01c-3.02,0-5.05-1.43-6.83-2.69c-1.28-0.9-2.49-1.76-3.9-1.99c-0.69-0.12-1.38-0.17-2.05-0.17
	c-1.2,0-2.15,0.19-2.85,0.32c-0.43,0.08-0.79,0.15-1.08,0.15c-0.3,0-0.66-0.07-0.81-0.58c-0.12-0.41-0.21-0.8-0.29-1.18
	c-0.21-0.95-0.36-1.53-0.71-1.58c-3.79-0.59-6.03-1.45-6.48-2.49c-0.05-0.11-0.07-0.22-0.08-0.33c-0.02-0.31,0.2-0.58,0.51-0.63
	c3.01-0.5,5.69-2.09,7.96-4.73c1.76-2.05,2.62-4.01,2.72-4.22c0-0.01,0.01-0.02,0.01-0.03c0.44-0.89,0.52-1.66,0.26-2.28
	c-0.49-1.15-2.11-1.67-3.18-2.01c-0.27-0.08-0.52-0.16-0.72-0.24c-0.95-0.37-2.51-1.17-2.3-2.26c0.15-0.8,1.21-1.35,2.06-1.35
	c0.24,0,0.45,0.04,0.62,0.12c0.96,0.45,1.83,0.68,2.58,0.68c0.93,0,1.37-0.35,1.48-0.45c-0.03-0.49-0.06-1.02-0.09-1.51
	c0,0,0-0.01,0-0.01c-0.22-3.46-0.49-7.77,0.61-10.24c3.3-7.39,10.29-7.97,12.35-7.97c0.05,0,0.9-0.01,0.9-0.01c0.04,0,0.08,0,0.12,0
	c2.07,0,9.08,0.58,12.38,7.97c1.1,2.47,0.83,6.78,0.61,10.25l-0.01,0.17c-0.03,0.47-0.06,0.92-0.08,1.35
	c0.1,0.09,0.51,0.42,1.34,0.45c0.71-0.03,1.53-0.25,2.43-0.68c0.28-0.13,0.59-0.16,0.79-0.16c0.32,0,0.64,0.06,0.91,0.17l0.01,0.01
	c0.76,0.27,1.26,0.81,1.27,1.38c0.01,0.53-0.38,1.32-2.32,2.09c-0.2,0.08-0.45,0.16-0.72,0.24c-1.07,0.34-2.69,0.85-3.18,2.01
	c-0.27,0.62-0.18,1.39,0.26,2.28c0.01,0.01,0.01,0.02,0.01,0.03c0.13,0.32,3.4,7.76,10.68,8.95c0.31,0.05,0.53,0.32,0.51,0.63
	c-0.01,0.11-0.03,0.22-0.08,0.33c-0.44,1.04-2.68,1.9-6.48,2.49c-0.36,0.05-0.51,0.63-0.71,1.57c-0.08,0.39-0.17,0.77-0.29,1.17
	c-0.11,0.38-0.36,0.56-0.75,0.56h-0.06c-0.26,0-0.62-0.05-1.08-0.14c-0.8-0.16-1.7-0.3-2.85-0.3c-0.67,0-1.36,0.06-2.05,0.17
	c-1.41,0.24-2.62,1.09-3.89,1.99C382.96,73.23,380.94,74.65,377.92,74.65"/>
<path id="path3805" inkscape:connector-curvature="0" class="st0" d="M527.18,25c-0.88,0-1.56,0.72-1.56,1.59v46.47
	c0,0.88,0.69,1.59,1.56,1.59h47.62c0.88,0,1.59-0.72,1.59-1.59V26.59c0-0.88-0.72-1.59-1.59-1.59H527.18z M544.9,39.19
	c2.76,0,5.27,1.06,7.16,2.78c-2.23,2.1-2.16,2.22-3.03,3.09c-1.09-0.9-2.28-1.56-4.12-1.56c-3.49,0-6.22,2.82-6.22,6.31
	c0,3.49,2.73,6.34,6.22,6.34c3.45,0,4.85-1.49,5.75-4.22c-1.66,0-5.75,0-5.75,0v-4.22h10.22c0.71,5.1-1.44,12.75-10.22,12.75
	c-5.88,0-10.66-4.78-10.66-10.66C534.24,43.94,539.02,39.19,544.9,39.19z M561.43,44.25h2.62v3.69h3.69v2.62h-3.69v3.78h-2.62v-3.78
	h-3.78v-2.62h3.78V44.25z"/>
<path id="rect4197" inkscape:connector-curvature="0" class="st0" d="M449.86,23.86c-6.07,0-10.95,4.89-10.95,10.95V63.7
	c0,6.07,4.89,10.95,10.95,10.95h28.88c6.07,0,10.95-4.89,10.95-10.95V34.82c0-6.07-4.89-10.95-10.95-10.95H449.86z M464.52,35.39
	c0.02,0,0.05,0,0.07,0c1.2,0,5.28,0.33,7.2,4.64c0.64,1.44,0.48,3.94,0.36,5.96l-0.01,0.1c-0.02,0.27-0.03,0.53-0.05,0.78
	c0.06,0.05,0.3,0.25,0.79,0.26c0.41-0.02,0.89-0.15,1.41-0.4c0.16-0.08,0.35-0.09,0.47-0.09c0.18,0,0.37,0.04,0.52,0.1h0.01
	c0.44,0.16,0.73,0.47,0.74,0.8c0.01,0.31-0.22,0.77-1.35,1.21c-0.12,0.05-0.26,0.09-0.42,0.14c-0.62,0.2-1.56,0.5-1.84,1.17
	c-0.15,0.36-0.11,0.81,0.15,1.33c0,0.01,0.01,0.01,0.01,0.02c0.08,0.18,1.98,4.51,6.21,5.21c0.18,0.03,0.31,0.19,0.3,0.37
	c0,0.06-0.02,0.13-0.05,0.19c-0.26,0.6-1.56,1.1-3.77,1.44c-0.21,0.03-0.29,0.37-0.41,0.92c-0.05,0.23-0.1,0.45-0.17,0.68
	c-0.06,0.22-0.21,0.33-0.44,0.33h-0.03c-0.15,0-0.36-0.03-0.63-0.09c-0.47-0.09-0.99-0.17-1.66-0.17c-0.39,0-0.79,0.03-1.19,0.1
	c-0.82,0.14-1.52,0.63-2.26,1.16c-1.04,0.74-2.22,1.56-3.98,1.56c-0.08,0-0.16,0-0.23-0.01c-0.05,0-0.1,0.01-0.15,0.01
	c-1.76,0-2.94-0.83-3.98-1.56c-0.74-0.53-1.44-1.02-2.26-1.16c-0.4-0.07-0.8-0.1-1.19-0.1c-0.7,0-1.25,0.11-1.66,0.19
	c-0.25,0.05-0.46,0.09-0.63,0.09c-0.17,0-0.38-0.04-0.47-0.33c-0.07-0.24-0.12-0.46-0.17-0.68c-0.12-0.55-0.21-0.89-0.41-0.92
	c-2.21-0.34-3.51-0.84-3.77-1.45c-0.03-0.06-0.04-0.13-0.05-0.19c-0.01-0.18,0.12-0.34,0.3-0.37c1.75-0.29,3.31-1.21,4.63-2.75
	c1.02-1.19,1.53-2.33,1.58-2.46c0-0.01,0.01-0.01,0.01-0.02c0.25-0.52,0.3-0.97,0.15-1.33c-0.28-0.67-1.22-0.97-1.84-1.17
	c-0.15-0.05-0.3-0.09-0.42-0.14c-0.55-0.22-1.46-0.68-1.34-1.31c0.09-0.46,0.7-0.79,1.2-0.79c0.14,0,0.26,0.02,0.36,0.07
	c0.56,0.26,1.07,0.4,1.5,0.4c0.54,0,0.8-0.21,0.86-0.26c-0.02-0.29-0.04-0.59-0.05-0.88c0,0-0.01,0-0.01,0
	c-0.13-2.01-0.28-4.52,0.36-5.95c1.92-4.3,5.99-4.64,7.19-4.64C464.03,35.39,464.52,35.39,464.52,35.39L464.52,35.39z"/>
<path id="path2997" inkscape:connector-curvature="0" class="st1" d="M470.51,123.71l-2,8v35.98h9v5h5l5-5h8l15.99-15.99v-27.99
	L470.51,123.71L470.51,123.71z M474.51,127.71h32.99v21.99l-7,7h-11l-6,6v-6h-9L474.51,127.71L474.51,127.71z M485.5,135.7v12h4v-12
	H485.5z M496.5,135.7v12h4v-12H496.5z"/>
<path id="path14-2" inkscape:connector-curvature="0" class="st0" d="M670.6,46.12v-7.21h-5.15v7.21h-7.42v5.15h7.42v7.42h5.15
	v-7.42h7.21v-5.15H670.6z M633.11,45.71v8.24c0,0,7.99-0.01,11.25-0.01c-1.76,5.34-4.5,8.25-11.25,8.25
	c-6.83,0-12.15-5.53-12.15-12.36c0-6.83,5.33-12.36,12.15-12.36c3.61,0,5.94,1.27,8.08,3.04c1.71-1.71,1.57-1.96,5.92-6.07
	c-3.7-3.36-8.61-5.41-14-5.41c-11.49,0-20.8,9.31-20.8,20.8c0,11.49,9.31,20.8,20.8,20.8c17.17,0,21.37-14.95,19.98-24.92
	C649.03,45.71,633.11,45.71,633.11,45.71"/>
<path id="rect3687" inkscape:connector-curvature="0" class="st0" d="M280.01,23.48c-8.25,0-14.96,6.71-14.96,14.96v21.64
	c0,8.25,6.71,14.96,14.96,14.96h21.77c8.25,0,14.96-6.71,14.96-14.96V38.44c0-8.25-6.71-14.96-14.96-14.96H280.01z M280.01,27.91
	h21.77c5.87,0,10.53,4.66,10.53,10.53v21.64c0,5.87-4.66,10.53-10.53,10.53h-21.77c-5.87,0-10.53-4.66-10.53-10.53V38.44
	C269.48,32.57,274.13,27.91,280.01,27.91z M304.76,32.34c-1.71,0-3.1,1.39-3.1,3.1c0,1.71,1.39,3.1,3.1,3.1s3.1-1.39,3.1-3.1
	C307.86,33.73,306.47,32.34,304.76,32.34z M290.89,35.98c-7.31,0-13.28,5.97-13.28,13.28c0,7.31,5.97,13.28,13.28,13.28
	s13.28-5.97,13.28-13.28S298.2,35.98,290.89,35.98z M290.89,40.42c4.91,0,8.85,3.93,8.85,8.84c0,4.91-3.94,8.84-8.85,8.84
	c-4.91,0-8.84-3.93-8.84-8.84C282.05,44.35,285.98,40.42,290.89,40.42z"/>
<path id="path5068" inkscape:connector-curvature="0" class="st0" d="M57.75,127.76c-10.45,0-20.9,0.8-23.19,2.4
	c-4.59,3.2-4.59,29.13,0,32.33c4.59,3.2,41.79,3.2,46.38,0c4.59-3.2,4.59-29.13,0-32.33C78.65,128.56,68.2,127.76,57.75,127.76
	L57.75,127.76z M52.45,138.56l13.45,7.76l-13.45,7.76V138.56z"/>
<path class="st1" d="M126.93,181.53c0.84,7.19,4.85,11.48,11.83,11.94v8.09c-4.05,0.4-7.59-0.93-11.71-3.42v15.13
	c0,19.22-20.96,25.23-29.38,11.45c-5.41-8.87-2.1-24.42,15.27-25.05v8.53c-1.32,0.21-2.74,0.55-4.03,0.99
	c-3.86,1.31-6.05,3.76-5.44,8.08c1.17,8.27,16.35,10.72,15.09-5.44v-30.28h8.38V181.53z"/>
<path id="path4180" inkscape:connector-curvature="0" class="st0" d="M126.47,24.14c-6.89,0-11.61,4.21-11.61,11.93v6.66h-7.8v9.03
	h7.8v23.16h9.32V51.77h7.78l1.17-9.03h-8.95v-5.77c0-2.61,0.73-4.4,4.48-4.4h4.78v-8.07C132.61,24.38,129.77,24.14,126.47,24.14
	L126.47,24.14z"/>
<path class="st0" d="M76.58,180.48H33.3c-2.07,0-3.76,1.63-3.76,3.66v43.79c0,2.02,1.68,3.66,3.76,3.66h43.28
	c2.07,0,3.76-1.63,3.76-3.66v-43.79C80.33,182.12,78.65,180.48,76.58,180.48z M69.85,202.39c-2.78,0.27-5.21-0.64-8.03-2.35v10.38
	c0,13.19-14.38,17.31-20.16,7.86c-3.71-6.08-1.44-16.76,10.48-17.19v5.85c-0.91,0.15-1.88,0.38-2.77,0.68
	c-2.65,0.9-4.15,2.58-3.74,5.54c0.8,5.68,11.22,7.36,10.35-3.74v-20.78h5.75v-0.01c0.57,4.94,3.33,7.88,8.12,8.19V202.39z"/>
<path id="path4157" inkscape:connector-curvature="0" class="st0" d="M267.6,119.64c-2.07,0-3.76,1.63-3.76,3.66v43.79
	c0,2.02,1.68,3.66,3.76,3.66h43.28c2.07,0,3.76-1.63,3.76-3.66V123.3c0-2.02-1.68-3.66-3.76-3.66H267.6z M275.45,128.22
	c2.62,0,4.23,1.72,4.28,3.98c0,2.21-1.66,3.98-4.34,3.98h-0.04c-2.57,0-4.24-1.77-4.24-3.98
	C271.11,129.94,272.83,128.22,275.45,128.22L275.45,128.22z M298.07,138.8c5.05,0,8.82,3.3,8.82,10.39v13.23h-7.67v-12.35
	c0-3.1-1.11-5.22-3.88-5.22c-2.12,0-3.39,1.44-3.94,2.82c-0.2,0.49-0.24,1.17-0.24,1.86v12.89h-7.68c0,0,0.1-20.91,0-23.08h7.68
	v3.26C292.18,141.03,294,138.8,298.07,138.8L298.07,138.8z M291.16,142.6c-0.02,0.03-0.04,0.06-0.06,0.09h0.06V142.6z
	 M271.57,139.34h7.67v23.08h-7.67V139.34L271.57,139.34z"/>
</svg>
