<?xml version="1.0" encoding="utf-8"?>
<!-- Generator: Adobe Illustrator 26.5.0, SVG Export Plug-In . SVG Version: 6.00 Build 0)  -->
<svg version="1.1" id="Lager_1" xmlns="http://www.w3.org/2000/svg" xmlns:xlink="http://www.w3.org/1999/xlink" x="0px" y="0px"
	 viewBox="0 0 50.79 51.1" style="enable-background:new 0 0 50.79 51.1;" xml:space="preserve">
<style type="text/css">
	.st0{fill:#1A1A1A;}
</style>
<path class="st0" d="M47.04,0H3.76C1.68,0,0,1.63,0,3.66v43.79c0,2.02,1.68,3.66,3.76,3.66h43.28c2.07,0,3.76-1.63,3.76-3.66V3.66
	C50.79,1.63,49.11,0,47.04,0z M40.31,21.9c-2.78,0.27-5.21-0.64-8.03-2.35v10.38c0,13.19-14.38,17.31-20.16,7.86
	c-3.71-6.08-1.44-16.76,10.48-17.19v5.85c-0.91,0.15-1.88,0.38-2.77,0.68c-2.65,0.9-4.15,2.58-3.74,5.54
	c0.8,5.68,11.22,7.36,10.35-3.74V8.17h5.75V8.16c0.57,4.94,3.33,7.88,8.12,8.19V21.9z"/>
</svg>
