<?xml version="1.0" encoding="utf-8"?>
<!-- Generator: Adobe Illustrator 26.5.0, SVG Export Plug-In . SVG Version: 6.00 Build 0)  -->
<svg version="1.1" id="Lager_1" xmlns="http://www.w3.org/2000/svg" xmlns:xlink="http://www.w3.org/1999/xlink" x="0px" y="0px"
	 viewBox="0 0 50.79 41.27" style="enable-background:new 0 0 50.79 41.27;" xml:space="preserve">
<style type="text/css">
	.st0{fill:#1A1A1A;}
</style>
<path id="path22" class="st0" d="M50.79,4.89c-1.87,0.83-3.88,1.39-5.98,1.64c2.15-1.29,3.8-3.33,4.58-5.76
	c-2.01,1.19-4.24,2.06-6.62,2.53C40.87,1.27,38.16,0,35.17,0c-5.76,0-10.42,4.66-10.42,10.42c0,0.82,0.09,1.61,0.27,2.37
	C16.36,12.36,8.68,8.21,3.54,1.91c-0.9,1.54-1.41,3.33-1.41,5.24c0,3.62,1.84,6.8,4.64,8.67c-1.71-0.05-3.31-0.52-4.72-1.3
	c0,0.04,0,0.09,0,0.13c0,5.05,3.59,9.26,8.36,10.22c-0.87,0.24-1.79,0.36-2.74,0.36c-0.67,0-1.32-0.06-1.96-0.19
	c1.33,4.14,5.17,7.15,9.73,7.24c-3.57,2.8-8.06,4.46-12.94,4.46c-0.84,0-1.67-0.05-2.49-0.15c4.61,2.96,10.09,4.68,15.97,4.68
	c19.17,0,29.64-15.88,29.64-29.65c0-0.45-0.01-0.9-0.03-1.35C47.62,8.81,49.39,6.98,50.79,4.89"/>
</svg>
