<?xml version="1.0" encoding="utf-8"?>
<!-- Generator: Adobe Illustrator 26.5.0, SVG Export Plug-In . SVG Version: 6.00 Build 0)  -->
<svg version="1.1" id="Lager_1" xmlns="http://www.w3.org/2000/svg" xmlns:xlink="http://www.w3.org/1999/xlink" x="0px" y="0px"
	 viewBox="0 0 69.96 76.11" style="enable-background:new 0 0 69.96 76.11;" xml:space="preserve">
<style type="text/css">
	.st0{fill:#1D1D1B;}
</style>
<path class="st0" d="M49.38,69.14V26.86h-7.7v13.5c-1.95,0.78-4.05,1.19-6.21,1.19c-0.14,0-0.29-0.01-0.43-0.01V26.86h-7.7v12.59
	c-1.39-0.77-2.67-1.73-3.82-2.88c-3.19-3.19-4.98-7.43-4.98-11.95c0-4.51,1.79-8.76,4.98-11.95c3.19-3.25,7.43-4.98,11.95-4.98
	c3.98,0,7.7,1.33,10.69,3.78V2.39c-0.33-0.13-0.73-0.33-1.06-0.46C42.05,0.6,38.79,0,35.47,0c-3.32,0-6.57,0.6-9.56,1.92
	c-2.99,1.2-5.58,2.99-7.83,5.24c-2.26,2.26-4.05,4.91-5.31,7.83c-1.26,3.05-1.93,6.31-1.93,9.62c0,3.32,0.66,6.57,1.93,9.56
	s3.05,5.58,5.31,7.83c2.26,2.26,4.85,4.05,7.83,5.31c0.47,0.2,0.95,0.38,1.43,0.54v0.03H7.7V26.86H0v49.25h7.7V54.87h19.65v21.24
	h7.7V49.24c0.14,0,0.29,0.01,0.43,0.01c2.11,0,4.19-0.27,6.21-0.79v27.65h7.63h20.64v-6.97H49.38z"/>
</svg>
