<?xml version="1.0" encoding="utf-8"?>
<!-- Generator: Adobe Illustrator 26.5.0, SVG Export Plug-In . SVG Version: 6.00 Build 0)  -->
<svg version="1.1" id="Lager_1" xmlns="http://www.w3.org/2000/svg" xmlns:xlink="http://www.w3.org/1999/xlink" x="0px" y="0px"
	 viewBox="0 0 190.5 42.45" style="enable-background:new 0 0 190.5 42.45;" xml:space="preserve">
<g>
	<path d="M23.87,8.91h-5.24v14.33H5.24V8.91H0v33.55h5.24V27.98h13.38v14.47h5.24V8.91z"/>
	<path d="M60.94,42.45h5.74L52.12,7.37l-14.6,35.08h5.79l2.85-7.19h11.93L60.94,42.45z M48.05,30.56l4.07-10.22l4.07,10.22H48.05z"
		/>
	<path d="M102.76,32.55c-0.36,0.45-0.72,0.86-1.13,1.27c-2.17,2.17-5.06,3.39-8.14,3.39c-3.07,0-5.97-1.22-8.14-3.39
		c-2.17-2.17-3.39-5.06-3.39-8.14s1.22-5.97,3.39-8.14c2.17-2.22,5.06-3.39,8.14-3.39c2.71,0,5.24,0.9,7.28,2.58v-6.19
		c-0.23-0.09-0.5-0.23-0.72-0.32c-2.08-0.9-4.29-1.31-6.56-1.31c-2.26,0-4.48,0.41-6.51,1.31c-2.03,0.81-3.8,2.03-5.33,3.57
		c-1.54,1.54-2.76,3.35-3.62,5.33c-0.86,2.08-1.31,4.3-1.31,6.56s0.45,4.48,1.31,6.51c0.86,2.03,2.08,3.8,3.62,5.33
		c1.54,1.54,3.3,2.76,5.33,3.62c2.03,0.86,4.25,1.31,6.51,1.31c2.26,0,4.48-0.45,6.56-1.31c0.95-0.41,1.85-0.9,2.71-1.45V32.55z"/>
	<path d="M123.01,13.61h14.87v-4.7h-14.92h-5.2v33.55h5.2h14.92V37.7h-14.87v-10.4h12.25v-4.75h-12.25V13.61z M124.36,5.29h3.16
		L132.27,0h-4.75L124.36,5.29z"/>
	<path d="M172.37,37.7h-14.01V8.91h-5.24v33.55h5.2h14.06V37.7z"/>
	<path d="M190.5,42.45V8.91h-5.24v33.55H190.5z"/>
</g>
</svg>
