<?xml version="1.0" encoding="utf-8"?>
<!-- Generator: Adobe Illustrator 26.5.0, SVG Export Plug-In . SVG Version: 6.00 Build 0)  -->
<svg version="1.1" id="Lager_1" xmlns="http://www.w3.org/2000/svg" xmlns:xlink="http://www.w3.org/1999/xlink" x="0px" y="0px"
	 viewBox="0 0 120.45 48.5" style="enable-background:new 0 0 120.45 48.5;" xml:space="preserve">
<style type="text/css">
	.st0{fill:#FFFFFF;}
</style>
<g>
	<path class="st0" d="M15.09,5.63h-3.32v9.06H3.32V5.63H0v21.21h3.32v-9.15h8.46v9.15h3.32L15.09,5.63L15.09,5.63z"/>
	<path class="st0" d="M38.53,26.84h3.63l-9.2-22.18l-9.23,22.18h3.66l1.8-4.55h7.55L38.53,26.84z M30.38,19.32l2.57-6.46l2.57,6.46
		H30.38z"/>
	<path class="st0" d="M64.97,20.58c-0.23,0.29-0.46,0.54-0.71,0.8c-1.37,1.37-3.2,2.14-5.15,2.14c-1.94,0-3.77-0.77-5.15-2.14
		c-1.37-1.37-2.14-3.2-2.14-5.15s0.77-3.77,2.14-5.15c1.37-1.4,3.2-2.14,5.15-2.14c1.72,0,3.32,0.57,4.6,1.63V6.65
		c-0.14-0.06-0.31-0.14-0.46-0.2c-1.31-0.57-2.72-0.83-4.14-0.83c-1.43,0-2.83,0.26-4.12,0.83c-1.29,0.51-2.4,1.29-3.37,2.26
		c-0.97,0.97-1.74,2.12-2.29,3.37c-0.54,1.31-0.83,2.72-0.83,4.14c0,1.43,0.29,2.83,0.83,4.12s1.31,2.4,2.29,3.37
		c0.97,0.97,2.09,1.74,3.37,2.29c1.29,0.54,2.69,0.83,4.12,0.83s2.83-0.29,4.14-0.83c0.6-0.26,1.17-0.57,1.72-0.91V20.58z"/>
	<path class="st0" d="M77.77,8.6h9.4V5.63h-9.43h-3.29v21.21h3.29h9.43v-3h-9.4v-6.57h7.75v-3h-7.75V8.6z M78.63,3.34h2l3-3.34h-3
		L78.63,3.34z"/>
	<path class="st0" d="M108.99,23.83h-8.86V5.63h-3.32v21.21h3.29h8.89V23.83z"/>
	<path class="st0" d="M120.45,26.84V5.63h-3.32v21.21H120.45z"/>
</g>
<g>
	<path class="st0" d="M25.72,42.04l-0.88,0.52c-0.16-0.29-0.32-0.47-0.47-0.56c-0.16-0.1-0.36-0.15-0.6-0.15
		c-0.3,0-0.55,0.09-0.75,0.26c-0.2,0.17-0.3,0.38-0.3,0.64c0,0.35,0.26,0.63,0.78,0.85l0.72,0.29c0.59,0.24,1.01,0.53,1.28,0.87
		c0.27,0.34,0.41,0.76,0.41,1.25c0,0.66-0.22,1.21-0.66,1.64c-0.44,0.44-1,0.65-1.66,0.65c-0.63,0-1.14-0.19-1.55-0.56
		c-0.4-0.37-0.65-0.89-0.75-1.56l1.1-0.24c0.05,0.42,0.14,0.72,0.26,0.88c0.22,0.31,0.55,0.47,0.98,0.47c0.34,0,0.62-0.11,0.84-0.34
		c0.22-0.23,0.34-0.52,0.34-0.86c0-0.14-0.02-0.27-0.06-0.39c-0.04-0.12-0.1-0.22-0.18-0.32s-0.19-0.19-0.32-0.28
		s-0.29-0.17-0.47-0.25l-0.7-0.29c-0.99-0.42-1.48-1.03-1.48-1.83c0-0.54,0.21-0.99,0.62-1.36c0.41-0.37,0.93-0.55,1.55-0.55
		C24.6,40.83,25.25,41.23,25.72,42.04z"/>
	<path class="st0" d="M31.61,41.99v6.18h-1.09v-6.18h-1.66v-1.02h4.4v1.02H31.61z"/>
	<path class="st0" d="M35.92,44.54c0-1.02,0.37-1.89,1.12-2.61c0.74-0.73,1.63-1.09,2.67-1.09c1.03,0,1.91,0.37,2.64,1.1
		c0.74,0.73,1.11,1.62,1.11,2.65c0,1.04-0.37,1.92-1.11,2.64c-0.74,0.73-1.64,1.09-2.69,1.09c-0.93,0-1.77-0.32-2.51-0.97
		C36.33,46.63,35.92,45.69,35.92,44.54z M37.02,44.55c0,0.8,0.27,1.45,0.8,1.96s1.15,0.77,1.84,0.77c0.76,0,1.39-0.26,1.91-0.78
		c0.52-0.53,0.78-1.17,0.78-1.93c0-0.77-0.26-1.41-0.77-1.93c-0.51-0.52-1.14-0.78-1.9-0.78c-0.75,0-1.38,0.26-1.9,0.78
		C37.28,43.15,37.02,43.79,37.02,44.55z"/>
	<path class="st0" d="M52.43,41.35v1.29c-0.63-0.53-1.28-0.79-1.95-0.79c-0.74,0-1.36,0.27-1.87,0.8c-0.51,0.53-0.77,1.18-0.77,1.94
		s0.25,1.39,0.77,1.91c0.51,0.52,1.14,0.78,1.88,0.78c0.38,0,0.71-0.06,0.98-0.19c0.15-0.06,0.3-0.15,0.46-0.25
		c0.16-0.11,0.33-0.23,0.51-0.38v1.31c-0.62,0.35-1.28,0.53-1.96,0.53c-1.03,0-1.91-0.36-2.64-1.08c-0.73-0.73-1.09-1.6-1.09-2.62
		c0-0.92,0.3-1.74,0.91-2.46c0.75-0.88,1.71-1.32,2.9-1.32C51.2,40.83,51.82,41,52.43,41.35z"/>
	<path class="st0" d="M57.36,43.84l2.81-2.88h1.45l-3.26,3.26l3.28,3.94h-1.46l-2.6-3.21l-0.22,0.22v2.98h-1.09v-7.21h1.09
		L57.36,43.84z"/>
	<path class="st0" d="M65.97,43.79h3.11v-2.82h1.09v7.21h-1.09v-3.37h-3.11v3.37h-1.09v-7.21h1.09V43.79z"/>
	<path class="st0" d="M73.81,44.54c0-1.02,0.37-1.89,1.12-2.61c0.74-0.73,1.63-1.09,2.67-1.09c1.03,0,1.91,0.37,2.64,1.1
		c0.74,0.73,1.11,1.62,1.11,2.65c0,1.04-0.37,1.92-1.11,2.64c-0.74,0.73-1.64,1.09-2.69,1.09c-0.93,0-1.77-0.32-2.51-0.97
		C74.22,46.63,73.81,45.69,73.81,44.54z M74.91,44.55c0,0.8,0.27,1.45,0.8,1.96c0.53,0.51,1.15,0.77,1.84,0.77
		c0.76,0,1.39-0.26,1.91-0.78c0.52-0.53,0.78-1.17,0.78-1.93c0-0.77-0.26-1.41-0.77-1.93c-0.51-0.52-1.14-0.78-1.9-0.78
		c-0.75,0-1.38,0.26-1.9,0.78C75.17,43.15,74.91,43.79,74.91,44.55z"/>
	<path class="st0" d="M86.07,40.97v6.18h2.12v1.02h-3.21v-7.21h1.09V40.97z"/>
	<path class="st0" d="M91.25,48.17l1.52-7.75l2.47,5.6l2.56-5.6l1.36,7.75h-1.12l-0.69-4.35l-2.13,4.68l-2.07-4.69l-0.78,4.36H91.25
		z"/>
</g>
</svg>
